<svg xmlns="http://www.w3.org/2000/svg" width="32" height="32"><path fill="#13829b" d="M29.511 17.68c0 7.462-6.049 13.512-13.512 13.512S2.487 25.143 2.487 17.68c0-7.462 6.049-13.512 13.512-13.512s13.512 6.049 13.512 13.512z"/><path fill="#28d2e4" d="M15.999 4.169c.557 0 1.105.033 1.644.099V.808h-3.286v3.46a13.698 13.698 0 0 1 1.642-.099z"/><path fill="#ffdb77" d="M25.553 17.68c0 5.276-4.277 9.554-9.554 9.554s-9.554-4.277-9.554-9.554c0-5.276 4.277-9.554 9.554-9.554s9.554 4.277 9.554 9.554z"/><path fill="#22313f" d="M18.451 3.571V.808A.808.808 0 0 0 17.643 0h-3.286a.808.808 0 0 0-.808.808v2.763C6.815 4.738 1.68 10.62 1.68 17.68 1.68 25.577 8.103 32 15.999 32s14.32-6.424 14.32-14.321c0-7.06-5.137-12.942-11.868-14.109zm-3.285-.186V1.616h1.67v1.769a14.288 14.288 0 0 0-1.71.002l.04-.002zm.833 26.998c-7.005 0-12.703-5.698-12.703-12.702 0-6.503 4.908-11.878 11.214-12.618a12.849 12.849 0 0 1 2.979 0c6.306.74 11.214 6.115 11.214 12.616 0 7.005-5.699 12.704-12.704 12.704z"/><path fill="#22313f" d="M15.999 7.318c-5.708 0-10.362 4.645-10.362 10.362 0 5.708 4.643 10.363 10.362 10.363 5.724 0 10.363-4.662 10.363-10.363 0-5.708-4.645-10.362-10.363-10.362zm7.68 11.17h1.029a8.694 8.694 0 0 1-1.993 4.789l.011-.014-.724-.725a.807.807 0 0 0-1.142 1.142l.724.726a8.657 8.657 0 0 1-4.74 1.979l-.035.003v-1.029a.808.808 0 0 0-1.616 0v1.029a8.694 8.694 0 0 1-4.789-1.993l.014.011.725-.724A.808.808 0 1 0 10 22.54l-.725.724a8.655 8.655 0 0 1-1.979-4.741l-.003-.035h1.029a.808.808 0 0 0 0-1.616H7.293a8.694 8.694 0 0 1 1.993-4.789l-.011.014.724.725a.808.808 0 1 0 1.142-1.142l-.724-.725a8.655 8.655 0 0 1 4.741-1.979l.035-.003v1.028a.808.808 0 0 0 1.616 0V8.974a8.69 8.69 0 0 1 4.788 1.992l-.014-.011-.725.725a.808.808 0 1 0 1.143 1.142l.725-.725a8.655 8.655 0 0 1 1.979 4.741l.003.035h-1.029a.808.808 0 0 0 0 1.616z"/><path fill="#22313f" d="m18.097 14.196-2.693 2.938a.808.808 0 0 0 1.19 1.093l.001-.001 2.693-2.939a.808.808 0 1 0-1.191-1.092l-.001.001z"/></svg>