<svg xmlns="http://www.w3.org/2000/svg" width="32" height="32"><path fill="#7496c4" d="M30.4 2.4h.8v26.4h-.8z"/><path fill="#7496c4" d="M25.6 28h5.6v.8h-5.6zm0-12.8h5.6v.8h-5.6z"/><path fill="#c74343" d="M25.6 2.4h5.6v.8h-5.6z"/><path fill="#7496c4" d="M28 24.8h3.2v.8H28zm0-3.2h3.2v.8H28zm0-3.2h3.2v.8H28zm0-6.4h3.2v.8H28z"/><path fill="#c74343" d="M28 8.8h3.2v.8H28z"/><path fill="#c74343" d="M30.4 2.4h.8v7.2h-.8z"/><path fill="#c74343" d="M28 5.6h3.2v.8H28z"/><path fill="#c2e8ff" d="M11.6 30.8c-5.736 0-10.4-4.688-10.4-10.456 0-6 8.64-16.8 10.4-18.92C13.344 3.568 22 14.496 22 20.344c0 5.76-4.664 10.456-10.4 10.456z"/><path fill="#7496c4" d="M11.6 2.064c2.248 2.8 10 12.848 10 18.28 0 5.544-4.48 10.056-10 10.056s-10-4.512-10-10.056c0-5.584 7.736-15.504 10-18.28zM11.6.8S.8 13.464.8 20.344c0 6 4.832 10.856 10.8 10.856s10.8-4.864 10.8-10.856C22.4 13.648 11.6.8 11.6.8z"/><path fill="#8bb7f0" d="M11.6 30.8c-5.736 0-10.4-4.688-10.4-10.456 0-1.6.624-3.68 1.848-6.2a9.66 9.66 0 0 1 4.09-.944h.006c1.472 0 2.784.752 4.176 1.544 1.44.816 2.912 1.656 4.624 1.656 1.52 0 3.048-.504 4.536-1.496 1.008 2.2 1.52 4.032 1.52 5.44 0 5.76-4.664 10.456-10.4 10.456z"/><path fill="#4e7ab5" d="M7.144 13.6c1.36 0 2.64.72 3.984 1.488 1.472.84 3 1.712 4.816 1.712 1.472 0 2.928-.44 4.36-1.304.856 1.96 1.296 3.584 1.296 4.848 0 5.544-4.48 10.056-10 10.056s-10-4.512-10-10.056c0-1.512.584-3.488 1.752-5.896.96-.416 2.216-.848 3.792-.848zm0-.8c-1.864 0-3.344.56-4.384 1.04C1.6 16.184.8 18.48.8 20.344c0 6 4.832 10.856 10.8 10.856s10.8-4.864 10.8-10.856c0-1.712-.712-3.84-1.76-6.04-1.024.752-2.648 1.696-4.696 1.696-3.2 0-5.632-3.2-8.8-3.2z"/></svg>