<svg xmlns="http://www.w3.org/2000/svg" width="32" height="32"><path fill="#7496c4" d="M30.4 2.4h.8v26.4h-.8z"/><path fill="#7496c4" d="M25.6 28h5.6v.8h-5.6zm0-12.8h5.6v.8h-5.6z"/><path fill="#c74343" d="M25.6 2.4h5.6v.8h-5.6z"/><path fill="#7496c4" d="M28 24.8h3.2v.8H28zm0-3.2h3.2v.8H28zm0-3.2h3.2v.8H28zm0-6.4h3.2v.8H28z"/><path fill="#c74343" d="M28 8.8h3.2v.8H28z"/><path fill="#c74343" d="M30.4 2.4h.8v7.2h-.8z"/><path fill="#c74343" d="M28 5.6h3.2v.8H28z"/><path fill="#4e7ab5" d="m14.4 24.8 3.2 4 3.2-4zm-7.2 0 3.2 4 3.2-4zm-7.2 0 3.2 4 3.2-4z"/><path fill="none" stroke="#4e7ab5" stroke-miterlimit="10" stroke-width="1.6" d="M23.2 2.4c0 5.488-.384 6.744-3.36 12.32-2.208 4.128-2.24 6.184-2.24 10.08M16 2.4c0 5.488-.384 6.744-3.36 12.32-2.208 4.128-2.24 6.184-2.24 10.08M8.8 2.4c0 5.488-.384 6.744-3.36 12.32C3.232 18.848 3.2 20.904 3.2 24.8"/></svg>