<svg xmlns="http://www.w3.org/2000/svg" width="32" height="32"><path fill="#f59558" d="M17.837 23.188c.016-.091.028-.181.028-.275v-9.834h-3.541v9.831c0 .094.012.184.028.275a3.539 3.539 0 0 0 1.744 6.619 3.54 3.54 0 0 0 3.541-3.541 3.539 3.539 0 0 0-1.8-3.075z"/><path fill="#211f1e" d="M18.572 22.822V6.088c0-1.366-1.113-2.478-2.478-2.478s-2.478 1.113-2.478 2.478v16.731a4.263 4.263 0 0 0-1.769 3.444c0 2.344 1.906 4.247 4.247 4.247s4.25-1.9 4.25-4.244c0-1.366-.669-2.65-1.772-3.444zm-2.478 6.275a2.832 2.832 0 0 1-2.831-2.831c0-1.003.544-1.941 1.416-2.45a.704.704 0 0 0 .353-.613v-1.275h.353a.353.353 0 1 0 0-.706h-.353v-1.416h.353a.353.353 0 1 0 0-.706h-.353v-1.416h.353a.353.353 0 1 0 0-.706h-.353v-1.416h.353a.353.353 0 1 0 0-.706h-.353V13.44h.353a.353.353 0 1 0 0-.706h-.353v-1.416h.353a.353.353 0 1 0 0-.706h-.353V9.196h.353a.353.353 0 1 0 0-.706h-.353V7.062h.353a.353.353 0 1 0 0-.706h-.353V6.09c0-.584.475-1.063 1.063-1.063.584 0 1.063.475 1.063 1.063v17.116c0 .253.134.488.353.613a2.84 2.84 0 0 1 1.416 2.45 2.83 2.83 0 0 1-2.831 2.828z"/></svg>