<svg xmlns="http://www.w3.org/2000/svg" width="32" height="32"><path d="M26 30h-4a2 2 0 0 1-2-2v-7a2 2 0 0 1-2-2v-6.05A2.95 2.95 0 0 1 20.95 10h.053H21h6.05A2.95 2.95 0 0 1 30 12.95v.053V13v6a2 2 0 0 1-2 2v7a2 2 0 0 1-2 2zm-5-18a.94.94 0 0 0-1.002.938l.002.065V13v6h2v9h4v-9h2v-6l.002-.062A.94.94 0 0 0 26.997 12H27zm3-3a4 4 0 1 1 4-4 4.01 4.01 0 0 1-3.999 4H24zm0-6a2 2 0 1 0 2 2 2 2 0 0 0-2-2zM10 20.18V12H8v8.18c-1.175.424-2 1.53-2 2.828a3 3 0 1 0 4.021-2.822L10 20.179z"/><path d="M9 30a7 7 0 0 1-4.998-11.891l-.001.001V7a5 5 0 0 1 10 0v11.11a7 7 0 0 1-5 11.89H9zM9 4a3 3 0 0 0-3 3v11.98l-.33.3a5 5 0 1 0 6.665.004l-.005-.004-.33-.3V7a3 3 0 0 0-3-3z"/></svg>