<svg xmlns="http://www.w3.org/2000/svg" width="32" height="32"><path fill="#bdd7e5" d="M12.267 10.667c0 3.535-.955 6.4-2.133 6.4s-2.133-2.865-2.133-6.4.955-6.4 2.133-6.4 2.133 2.865 2.133 6.4z"/><path fill="#abcadd" d="M10.133 17.6c-1.749 0-2.667-3.488-2.667-6.933s.917-6.933 2.667-6.933S12.8 7.222 12.8 10.667s-.917 6.933-2.667 6.933zm0-12.8c-.544 0-1.6 2.069-1.6 5.867s1.056 5.867 1.6 5.867 1.6-2.069 1.6-5.867-1.056-5.867-1.6-5.867z"/><path fill="#e4eff7" d="M29.867 6.933 10.134 4.266c1.173 0 2.133 2.864 2.133 6.4s-.96 6.4-2.133 6.4l19.733-2.667c.885 0 1.6-1.083 1.6-3.733s-.715-3.733-1.6-3.733z"/><path fill="#abcadd" d="m10.133 17.6-.069-1.067.149-.016c.629-.224 1.52-2.4 1.52-5.851s-.891-5.627-1.52-5.851l-.149-.021.069-1.061c.101 0 .197.011.299.037l19.472 2.629c.8.021 2.096.613 2.096 4.267s-1.296 4.245-2.096 4.267l-19.477 2.629a1.066 1.066 0 0 1-.293.037zm1.616-12.576c.715 1.365 1.051 3.605 1.051 5.643s-.336 4.277-1.051 5.643l18.117-2.443c.491 0 1.067-.837 1.067-3.2s-.576-3.2-1.067-3.2h-.069L11.749 5.019z"/><path fill="#abcadd" d="M9.76 17.44 2.293 9.973a.532.532 0 0 1 .063-.804l.001-.001 7.467-5.333.619.864L3.488 9.67l7.024 7.019-.757.757z"/><path fill="#e64c3c" d="m27.381 7.136-1.131-.155c.267 1.067.416 2.347.416 3.685s-.149 2.624-.416 3.691l1.131-.16c.224-1.056.352-2.277.352-3.531s-.123-2.475-.352-3.531zm-3.296-.448-1.152-.155c.339 1.187.534 2.55.534 3.959l-.001.184v-.009l.001.174c0 1.409-.195 2.772-.56 4.064l.025-.105 1.152-.155c.288-1.147.448-2.523.448-3.979 0-1.451-.16-2.827-.448-3.979zm-3.328-.448-1.173-.16c.427 1.147.683 2.827.683 4.587s-.256 3.44-.688 4.587l1.179-.16c.373-1.216.576-2.773.576-4.427s-.208-3.211-.576-4.427z"/><path fill="none" stroke="#7f8c8d" stroke-miterlimit="10" stroke-width="1.067" d="M2.667 26.133V4.8"/><path fill="#bdc3c7" stroke="#95a5a5" stroke-miterlimit="10" stroke-width="1.067" d="M4.8 2.667a2.133 2.133 0 1 1-4.266 0 2.133 2.133 0 0 1 4.266 0z"/><path fill="#bdc3c7" stroke="#7f8c8d" stroke-miterlimit="10" stroke-width="1.067" d="M1.6 26.133h2.133v3.2H1.6zm-1.067 3.2H4.8v2.133H.533z"/></svg>