<!-- Generated by IcoMoon.io -->
<svg version="1.1" xmlns="http://www.w3.org/2000/svg" width="32" height="32" viewBox="0 0 32 32">
<title>daylength</title>
<path fill="#13829b" d="M29.511 17.68c0 7.462-6.049 13.512-13.512 13.512s-13.512-6.049-13.512-13.512c0-7.462 6.049-13.512 13.512-13.512s13.512 6.049 13.512 13.512z"></path>
<path fill="#28d2e4" d="M15.999 4.169c0.557 0 1.105 0.033 1.644 0.099v-3.46h-3.286v3.46c0.539-0.065 1.086-0.099 1.642-0.099z"></path>
<path fill="#ffdb77" d="M25.553 17.68c0 5.276-4.277 9.554-9.554 9.554s-9.554-4.277-9.554-9.554c0-5.276 4.277-9.554 9.554-9.554s9.554 4.277 9.554 9.554z"></path>
<path fill="#22313f" d="M18.451 3.571v-2.763c0-0.446-0.362-0.808-0.808-0.808v0h-3.286c-0.446 0-0.808 0.362-0.808 0.808v0 2.763c-6.734 1.167-11.869 7.049-11.869 14.109 0 7.897 6.423 14.32 14.319 14.32s14.32-6.424 14.32-14.321c0-7.060-5.137-12.942-11.868-14.109zM15.166 3.385v-1.769h1.67v1.769c-0.25-0.015-0.541-0.024-0.835-0.024s-0.585 0.009-0.875 0.026l0.040-0.002zM15.999 30.383c-7.005 0-12.703-5.698-12.703-12.702 0-6.503 4.908-11.878 11.214-12.618 1.002-0.116 1.989-0.115 2.979 0 6.306 0.74 11.214 6.115 11.214 12.616 0 7.005-5.699 12.704-12.704 12.704z"></path>
<path fill="#22313f" d="M15.999 7.318c-5.708 0-10.362 4.645-10.362 10.362 0 5.708 4.643 10.363 10.362 10.363 5.724 0 10.363-4.662 10.363-10.363 0-5.708-4.645-10.362-10.363-10.362zM23.679 18.488h1.029c-0.174 1.836-0.894 3.477-1.993 4.789l0.011-0.014-0.724-0.725c-0.144-0.134-0.338-0.217-0.551-0.217-0.446 0-0.808 0.362-0.808 0.808 0 0.213 0.082 0.407 0.217 0.551l-0-0 0.724 0.726c-1.298 1.088-2.939 1.807-4.74 1.979l-0.035 0.003v-1.029c0-0.446-0.362-0.808-0.808-0.808s-0.808 0.362-0.808 0.808v0 1.029c-1.836-0.174-3.477-0.894-4.789-1.993l0.014 0.011 0.725-0.724c0.152-0.147 0.246-0.353 0.246-0.581 0-0.446-0.362-0.808-0.808-0.808-0.228 0-0.434 0.095-0.581 0.247l-0 0-0.725 0.724c-1.088-1.299-1.808-2.94-1.979-4.741l-0.003-0.035h1.029c0.446 0 0.808-0.362 0.808-0.808s-0.362-0.808-0.808-0.808v0h-1.029c0.174-1.836 0.894-3.477 1.993-4.789l-0.011 0.014 0.724 0.725c0.148 0.158 0.358 0.257 0.591 0.257 0.446 0 0.808-0.362 0.808-0.808 0-0.233-0.099-0.443-0.257-0.591l-0-0-0.724-0.725c1.299-1.088 2.94-1.808 4.741-1.979l0.035-0.003v1.028c0 0.446 0.362 0.808 0.808 0.808s0.808-0.362 0.808-0.808v0-1.027c1.836 0.174 3.476 0.893 4.788 1.992l-0.014-0.011-0.725 0.725c-0.152 0.147-0.246 0.353-0.246 0.581 0 0.446 0.362 0.808 0.808 0.808 0.228 0 0.434-0.095 0.581-0.247l0.725-0.725c1.088 1.299 1.808 2.94 1.979 4.741l0.003 0.035h-1.029c-0.446 0-0.808 0.362-0.808 0.808s0.362 0.808 0.808 0.808v0z"></path>
<path fill="#22313f" d="M18.097 14.196l-2.693 2.938c-0.132 0.143-0.213 0.335-0.213 0.546 0 0.446 0.362 0.808 0.808 0.808 0.236 0 0.448-0.101 0.595-0.261l0.001-0.001 2.693-2.939c0.137-0.144 0.221-0.34 0.221-0.555 0-0.446-0.362-0.808-0.808-0.808-0.24 0-0.456 0.105-0.604 0.271l-0.001 0.001z"></path>
</svg>
