<!-- Generated by IcoMoon.io -->
<svg version="1.1" xmlns="http://www.w3.org/2000/svg" width="32" height="32" viewBox="0 0 32 32">
<title>humidity</title>
<path fill="#7496c4" d="M30.4 2.4h0.8v26.4h-0.8z"></path>
<path fill="#7496c4" d="M25.6 28h5.6v0.8h-5.6zM25.6 15.2h5.6v0.8h-5.6z"></path>
<path fill="#c74343" d="M25.6 2.4h5.6v0.8h-5.6z"></path>
<path fill="#7496c4" d="M28 24.8h3.2v0.8h-3.2zM28 21.6h3.2v0.8h-3.2zM28 18.4h3.2v0.8h-3.2zM28 12h3.2v0.8h-3.2z"></path>
<path fill="#c74343" d="M28 8.8h3.2v0.8h-3.2z"></path>
<path fill="#c74343" d="M30.4 2.4h0.8v7.2h-0.8z"></path>
<path fill="#c74343" d="M28 5.6h3.2v0.8h-3.2z"></path>
<path fill="#c2e8ff" d="M11.6 30.8c-5.736 0-10.4-4.688-10.4-10.456 0-6 8.64-16.8 10.4-18.92 1.744 2.144 10.4 13.072 10.4 18.92 0 5.76-4.664 10.456-10.4 10.456z"></path>
<path fill="#7496c4" d="M11.6 2.064c2.248 2.8 10 12.848 10 18.28 0 5.544-4.48 10.056-10 10.056s-10-4.512-10-10.056c0-5.584 7.736-15.504 10-18.28zM11.6 0.8s-10.8 12.664-10.8 19.544c0 6 4.832 10.856 10.8 10.856s10.8-4.864 10.8-10.856c0-6.696-10.8-19.544-10.8-19.544z"></path>
<path fill="#8bb7f0" d="M11.6 30.8c-5.736 0-10.4-4.688-10.4-10.456 0-1.6 0.624-3.68 1.848-6.2 1.199-0.581 2.605-0.928 4.090-0.944l0.006-0c1.472 0 2.784 0.752 4.176 1.544 1.44 0.816 2.912 1.656 4.624 1.656 1.52 0 3.048-0.504 4.536-1.496 1.008 2.2 1.52 4.032 1.52 5.44 0 5.76-4.664 10.456-10.4 10.456z"></path>
<path fill="#4e7ab5" d="M7.144 13.6c1.36 0 2.64 0.72 3.984 1.488 1.472 0.84 3 1.712 4.816 1.712 1.472 0 2.928-0.44 4.36-1.304 0.856 1.96 1.296 3.584 1.296 4.848 0 5.544-4.48 10.056-10 10.056s-10-4.512-10-10.056c0-1.512 0.584-3.488 1.752-5.896 0.96-0.416 2.216-0.848 3.792-0.848zM7.144 12.8c-1.864 0-3.344 0.56-4.384 1.040-1.16 2.344-1.96 4.64-1.96 6.504 0 6 4.832 10.856 10.8 10.856s10.8-4.864 10.8-10.856c0-1.712-0.712-3.84-1.76-6.040-1.024 0.752-2.648 1.696-4.696 1.696-3.2 0-5.632-3.2-8.8-3.2z"></path>
</svg>
