<svg aria-hidden="true" style="position:absolute;width:0;height:0;overflow:hidden" xmlns="http://www.w3.org/2000/svg"><defs><symbol id="search" viewBox="0 0 32 32"><path d="m27.41 24.59-5.07-5.08A10.01 10.01 0 1 0 4 13.96V14a10.01 10.01 0 0 0 15.54 8.3l-.04.03 5.09 5.07a2 2 0 1 0 2.82-2.82zM7 14a7.01 7.01 0 0 1 14.02.01v.01A7.01 7.01 0 0 1 7 14.01V14z"/></symbol><symbol id="pressure" viewBox="0 0 32 32"><path fill="#7496c4" style="fill:var(--color1, #7496c4)" d="M30.4 2.4h.8v26.4h-.8z"/><path fill="#7496c4" style="fill:var(--color1, #7496c4)" d="M25.6 28h5.6v.8h-5.6zm0-12.8h5.6v.8h-5.6z"/><path fill="#c74343" style="fill:var(--color2, #c74343)" d="M25.6 2.4h5.6v.8h-5.6z"/><path fill="#7496c4" style="fill:var(--color1, #7496c4)" d="M28 24.8h3.2v.8H28zm0-3.2h3.2v.8H28zm0-3.2h3.2v.8H28zm0-6.4h3.2v.8H28z"/><path fill="#c74343" style="fill:var(--color2, #c74343)" d="M28 8.8h3.2v.8H28z"/><path fill="#c74343" style="fill:var(--color2, #c74343)" d="M30.4 2.4h.8v7.2h-.8z"/><path fill="#c74343" style="fill:var(--color2, #c74343)" d="M28 5.6h3.2v.8H28z"/><path fill="#4e7ab5" style="fill:var(--color3, #4e7ab5)" d="m14.4 24.8 3.2 4 3.2-4zm-7.2 0 3.2 4 3.2-4zm-7.2 0 3.2 4 3.2-4z"/><path fill="none" stroke="#4e7ab5" style="stroke:var(--color3, #4e7ab5)" stroke-miterlimit="10" stroke-width="1.6" d="M23.2 2.4c0 5.49-.38 6.74-3.36 12.32-2.2 4.13-2.24 6.18-2.24 10.08M16 2.4c0 5.49-.38 6.74-3.36 12.32-2.2 4.13-2.24 6.18-2.24 10.08M8.8 2.4c0 5.49-.38 6.74-3.36 12.32C3.24 18.85 3.2 20.9 3.2 24.8"/></symbol><symbol id="humidity" viewBox="0 0 32 32"><path fill="#7496c4" style="fill:var(--color1, #7496c4)" d="M30.4 2.4h.8v26.4h-.8z"/><path fill="#7496c4" style="fill:var(--color1, #7496c4)" d="M25.6 28h5.6v.8h-5.6zm0-12.8h5.6v.8h-5.6z"/><path fill="#c74343" style="fill:var(--color2, #c74343)" d="M25.6 2.4h5.6v.8h-5.6z"/><path fill="#7496c4" style="fill:var(--color1, #7496c4)" d="M28 24.8h3.2v.8H28zm0-3.2h3.2v.8H28zm0-3.2h3.2v.8H28zm0-6.4h3.2v.8H28z"/><path fill="#c74343" style="fill:var(--color2, #c74343)" d="M28 8.8h3.2v.8H28z"/><path fill="#c74343" style="fill:var(--color2, #c74343)" d="M30.4 2.4h.8v7.2h-.8z"/><path fill="#c74343" style="fill:var(--color2, #c74343)" d="M28 5.6h3.2v.8H28z"/><path fill="#c2e8ff" style="fill:var(--color4, #c2e8ff)" d="M11.6 30.8c-5.74 0-10.4-4.69-10.4-10.46 0-6 8.64-16.8 10.4-18.92C13.34 3.57 22 14.5 22 20.34c0 5.76-4.66 10.46-10.4 10.46z"/><path fill="#7496c4" style="fill:var(--color1, #7496c4)" d="M11.6 2.06c2.25 2.8 10 12.85 10 18.28 0 5.55-4.48 10.06-10 10.06s-10-4.51-10-10.06c0-5.58 7.74-15.5 10-18.28zm0-1.26S.8 13.46.8 20.34c0 6 4.83 10.86 10.8 10.86s10.8-4.86 10.8-10.86C22.4 13.64 11.6.8 11.6.8z"/><path fill="#8bb7f0" style="fill:var(--color5, #8bb7f0)" d="M11.6 30.8c-5.74 0-10.4-4.69-10.4-10.46 0-1.6.62-3.68 1.85-6.2 1.2-.58 2.6-.92 4.09-.94 1.48 0 2.79.75 4.18 1.54 1.44.82 2.91 1.66 4.62 1.66 1.52 0 3.05-.5 4.54-1.5 1 2.2 1.52 4.04 1.52 5.44 0 5.76-4.66 10.46-10.4 10.46z"/><path fill="#4e7ab5" style="fill:var(--color3, #4e7ab5)" d="M7.14 13.6c1.36 0 2.64.72 3.99 1.49 1.47.84 3 1.71 4.81 1.71 1.48 0 2.93-.44 4.36-1.3.86 1.96 1.3 3.58 1.3 4.84 0 5.55-4.48 10.06-10 10.06s-10-4.51-10-10.06c0-1.5.58-3.48 1.75-5.9a9.33 9.33 0 0 1 3.8-.84zm0-.8c-1.86 0-3.34.56-4.38 1.04C1.6 16.18.8 18.48.8 20.34c0 6 4.83 10.86 10.8 10.86s10.8-4.86 10.8-10.86c0-1.7-.71-3.84-1.76-6.04a7.99 7.99 0 0 1-4.7 1.7c-3.2 0-5.63-3.2-8.8-3.2z"/></symbol><symbol id="rainy" viewBox="0 0 32 32"><path fill="#57a0ee" style="fill:var(--color6, #57a0ee);stroke:var(--color7, #fff)" stroke="#fff" stroke-linejoin="round" stroke-width=".6" d="M23.85 17.2v-.02a4.09 4.09 0 0 0-5.53-3.82l.03-.01a3.36 3.36 0 0 0-3.3-3.1 3.35 3.35 0 0 0-3.14 4.52l-.01-.02c-.15-.05-.35-.05-.5-.05h-.05a3.35 3.35 0 0 0-.05 6.7h8.6c2.2-.25 3.95-2 3.95-4.2z"/><path fill="none" stroke="#91c0f8" style="stroke:var(--color8, #91c0f8)" stroke-linecap="round" d="m13.45 23.14-.7 3.94M15.59 22.51l-.7 3.94M17.47 23.35l-.7 3.94"/></symbol><symbol id="wind" viewBox="0 0 32 32"><path fill="#bdd7e5" style="fill:var(--color9, #bdd7e5)" d="M12.27 10.67c0 3.53-.96 6.4-2.14 6.4S8 14.2 8 10.67c0-3.54.96-6.4 2.13-6.4s2.14 2.86 2.14 6.4z"/><path fill="#abcadd" style="fill:var(--color10, #abcadd)" d="M10.13 17.6c-1.75 0-2.66-3.49-2.66-6.93s.91-6.94 2.66-6.94 2.67 3.5 2.67 6.94-.92 6.93-2.67 6.93zm0-12.8c-.54 0-1.6 2.07-1.6 5.87s1.06 5.86 1.6 5.86 1.6-2.06 1.6-5.86-1.05-5.87-1.6-5.87z"/><path fill="#e4eff7" style="fill:var(--color11, #e4eff7)" d="M29.87 6.93 10.13 4.27c1.18 0 2.14 2.86 2.14 6.4s-.96 6.4-2.14 6.4l19.74-2.67c.88 0 1.6-1.08 1.6-3.73s-.72-3.74-1.6-3.74z"/><path fill="#abcadd" style="fill:var(--color10, #abcadd)" d="m10.13 17.6-.07-1.07.15-.01c.63-.23 1.52-2.4 1.52-5.85s-.89-5.63-1.52-5.85l-.15-.03.07-1.06c.1 0 .2.01.3.04L29.9 6.4c.8.02 2.1.61 2.1 4.27s-1.3 4.24-2.1 4.26l-19.47 2.63c-.1.03-.2.04-.3.04zm1.62-12.58c.71 1.37 1.05 3.6 1.05 5.65s-.34 4.27-1.05 5.64l18.12-2.44c.49 0 1.06-.84 1.06-3.2s-.57-3.2-1.06-3.2h-.07L11.75 5.02z"/><path fill="#abcadd" style="fill:var(--color10, #abcadd)" d="M9.76 17.44 2.29 9.97a.53.53 0 0 1 .07-.8l7.46-5.33.62.86L3.5 9.67l7.02 7.02-.75.76z"/><path fill="#e64c3c" style="fill:var(--color12, #e64c3c)" d="m27.38 7.14-1.13-.16c.27 1.07.42 2.35.42 3.69s-.15 2.62-.42 3.69l1.13-.16a17.33 17.33 0 0 0 0-7.07zm-3.3-.45-1.15-.16c.34 1.19.54 2.55.54 3.96v.19-.01.17c0 1.41-.2 2.77-.56 4.06l.02-.1 1.15-.16c.3-1.14.45-2.52.45-3.97 0-1.46-.16-2.83-.45-3.98zm-3.32-.45-1.18-.16c.43 1.15.69 2.83.69 4.59s-.26 3.44-.7 4.58l1.19-.16c.37-1.21.57-2.77.57-4.42s-.2-3.21-.57-4.43z"/><path fill="none" stroke="#7f8c8d" style="stroke:var(--color13, #7f8c8d)" stroke-miterlimit="10" stroke-width="1.07" d="M2.67 26.13V4.8"/><path fill="#bdc3c7" style="fill:var(--color14, #bdc3c7);stroke:var(--color15, #95a5a5)" stroke="#95a5a5" stroke-miterlimit="10" stroke-width="1.07" d="M4.8 2.67a2.13 2.13 0 1 1-4.27 0 2.13 2.13 0 0 1 4.27 0z"/><path fill="#bdc3c7" style="fill:var(--color14, #bdc3c7);stroke:var(--color13, #7f8c8d)" stroke="#7f8c8d" stroke-miterlimit="10" stroke-width="1.07" d="M1.6 26.13h2.13v3.2H1.6zm-1.07 3.2H4.8v2.14H.53z"/></symbol><symbol id="temperature-feels-like" viewBox="0 0 32 32"><path d="M26 30h-4a2 2 0 0 1-2-2v-7a2 2 0 0 1-2-2v-6.05A2.95 2.95 0 0 1 20.95 10h6.1A2.95 2.95 0 0 1 30 12.95V19a2 2 0 0 1-2 2v7a2 2 0 0 1-2 2zm-5-18h-.06a.94.94 0 0 0-.94.94V19h2v9h4v-9h2v-6.06a.94.94 0 0 0-1-.94zm3-3a4 4 0 1 1 4-4c0 2.2-1.8 4-4 4zm0-6a2 2 0 1 0 2 2 2 2 0 0 0-2-2zM10 20.18V12H8v8.18a3 3 0 1 0 2.02 0H10z"/><path d="M9 30a7 7 0 0 1-5-11.9v.01V7a5 5 0 0 1 10 0v11.11A7 7 0 0 1 9 30zM9 4a3 3 0 0 0-3 3v11.98l-.33.3a5 5 0 1 0 6.67 0h-.01l-.33-.3V7a3 3 0 0 0-3-3z"/></symbol><symbol id="temperature" viewBox="0 0 32 32"><path fill="#f59558" style="fill:var(--color16, #f59558)" d="m17.84 23.19.02-.28v-9.83h-3.54v9.83c0 .1.02.18.03.28a3.54 3.54 0 1 0 3.49 0z"/><path fill="#211f1e" style="fill:var(--color17, #211f1e)" d="M18.57 22.82V6.1a2.48 2.48 0 0 0-4.95 0v16.73a4.25 4.25 0 1 0 4.96 0zM16.1 29.1a2.83 2.83 0 0 1-1.41-5.28.7.7 0 0 0 .35-.62v-1.27h.36a.35.35 0 1 0 0-.7h-.36V19.8h.36a.35.35 0 1 0 0-.71h-.36v-1.42h.36a.35.35 0 1 0 0-.7h-.36v-1.42h.36a.35.35 0 1 0 0-.7h-.36v-1.42h.36a.35.35 0 1 0 0-.7h-.36v-1.42h.36a.35.35 0 1 0 0-.7h-.36V9.2h.36a.35.35 0 1 0 0-.71h-.36V7.06h.36a.35.35 0 1 0 0-.7h-.36v-.27a1.06 1.06 0 0 1 2.13 0v17.12c0 .25.13.48.35.6a2.83 2.83 0 0 1-1.41 5.28z"/></symbol><symbol id="sunset" viewBox="0 0 32 32"><path fill="#ff9800" style="fill:var(--color18, #ff9800)" d="m29.33 27.33-3.5-2.63 1.72-4.03-4.36-.53-.52-4.35-4.04 1.72L16 14l-2.63 3.5-4.04-1.71-.52 4.35-4.36.53 1.72 4.03-3.5 2.63h26.66z"/><path fill="#ffc107" style="fill:var(--color19, #ffc107)" d="M16 19.33a8 8 0 0 0-8 8h16a8 8 0 0 0-8-8z"/><path fill="#f44336" style="fill:var(--color20, #f44336)" d="M17.33 8.67h-2.66v-4h2.66z"/><path fill="#f44336" style="fill:var(--color20, #f44336)" d="m16 12 4-4h-8l4 4z"/></symbol><symbol id="sunrise" viewBox="0 0 32 32"><path fill="#ff9800" style="fill:var(--color18, #ff9800)" d="m29.33 27.33-3.5-2.63 1.72-4.03-4.36-.53-.52-4.35-4.04 1.72L16 14l-2.63 3.5-4.04-1.71-.52 4.35-4.36.53 1.72 4.03-3.5 2.63h26.66z"/><path fill="#ffc107" style="fill:var(--color19, #ffc107)" d="M16 19.33a8 8 0 0 0-8 8h16a8 8 0 0 0-8-8z"/><path fill="#f44336" style="fill:var(--color20, #f44336)" d="M14.67 8h2.66v4h-2.66z"/><path fill="#f44336" style="fill:var(--color20, #f44336)" d="m16 4.67-4 4h8l-4-4z"/></symbol><symbol id="daylength" viewBox="0 0 32 32"><path fill="#13829b" style="fill:var(--color1, #13829b)" d="M29.51 17.68a13.51 13.51 0 1 1-27.02 0 13.51 13.51 0 0 1 27.02 0z"/><path fill="#28d2e4" style="fill:var(--color2, #28d2e4)" d="M16 4.17c.56 0 1.1.03 1.64.1V.8h-3.28v3.46c.54-.07 1.08-.1 1.64-.1z"/><path fill="#ffdb77" style="fill:var(--color3, #ffdb77)" d="M25.55 17.68a9.55 9.55 0 1 1-19.1 0 9.55 9.55 0 0 1 19.1 0z"/><path fill="#22313f" style="fill:var(--color4, #22313f)" d="M18.45 3.57V.81a.8.8 0 0 0-.8-.81h-3.3a.8.8 0 0 0-.8.8v2.77A14.34 14.34 0 0 0 1.68 17.68C1.68 25.58 8.1 32 16 32a14.33 14.33 0 0 0 2.45-28.43zm-3.28-.19V1.62h1.67v1.76a14.29 14.29 0 0 0-1.71 0h.04zm.83 27A12.72 12.72 0 0 1 14.5 5.06a12.72 12.72 0 0 1 14.2 12.62c0 7-5.7 12.7-12.71 12.7z"/><path fill="#22313f" style="fill:var(--color4, #22313f)" d="M16 7.32c-5.7 0-10.36 4.64-10.36 10.36a10.37 10.37 0 0 0 20.72 0c0-5.7-4.64-10.36-10.36-10.36zm7.68 11.17h1.03a8.7 8.7 0 0 1-2 4.79l.02-.02-.73-.72a.8.8 0 0 0-1.14 1.14l.72.73a8.66 8.66 0 0 1-4.74 1.97h-.03v-1.02a.8.8 0 0 0-1.62 0v1.03a8.7 8.7 0 0 1-4.79-2l.02.02.72-.73A.8.8 0 1 0 10 22.54l-.72.72a8.66 8.66 0 0 1-1.98-4.74v-.03h1.02a.8.8 0 0 0 0-1.62H7.3a8.7 8.7 0 0 1 2-4.79l-.01.02.72.72a.8.8 0 1 0 1.14-1.14l-.72-.72a8.66 8.66 0 0 1 4.74-1.98h.03V10a.8.8 0 0 0 1.62 0V8.97c1.84.18 3.48.9 4.79 2l-.02-.01-.72.72A.8.8 0 1 0 22 12.82l.73-.72a8.66 8.66 0 0 1 1.98 4.74v.03h-1.03a.8.8 0 0 0 0 1.62z"/><path fill="#22313f" style="fill:var(--color4, #22313f)" d="m18.1 14.2-2.7 2.93a.8.8 0 0 0 1.19 1.1l2.7-2.94a.8.8 0 1 0-1.2-1.1z"/></symbol></defs></svg>