<!-- Generated by IcoMoon.io -->
<svg version="1.1" xmlns="http://www.w3.org/2000/svg" width="32" height="32" viewBox="0 0 32 32">
<title>pressure</title>
<path fill="#7496c4" d="M30.4 2.4h0.8v26.4h-0.8z"></path>
<path fill="#7496c4" d="M25.6 28h5.6v0.8h-5.6zM25.6 15.2h5.6v0.8h-5.6z"></path>
<path fill="#c74343" d="M25.6 2.4h5.6v0.8h-5.6z"></path>
<path fill="#7496c4" d="M28 24.8h3.2v0.8h-3.2zM28 21.6h3.2v0.8h-3.2zM28 18.4h3.2v0.8h-3.2zM28 12h3.2v0.8h-3.2z"></path>
<path fill="#c74343" d="M28 8.8h3.2v0.8h-3.2z"></path>
<path fill="#c74343" d="M30.4 2.4h0.8v7.2h-0.8z"></path>
<path fill="#c74343" d="M28 5.6h3.2v0.8h-3.2z"></path>
<path fill="#4e7ab5" d="M14.4 24.8l3.2 4 3.2-4zM7.2 24.8l3.2 4 3.2-4zM0 24.8l3.2 4 3.2-4z"></path>
<path fill="none" stroke="#4e7ab5" stroke-linejoin="miter" stroke-linecap="butt" stroke-miterlimit="10" stroke-width="1.6" d="M23.2 2.4c0 5.488-0.384 6.744-3.36 12.32-2.208 4.128-2.24 6.184-2.24 10.080M16 2.4c0 5.488-0.384 6.744-3.36 12.32-2.208 4.128-2.24 6.184-2.24 10.080M8.8 2.4c0 5.488-0.384 6.744-3.36 12.32-2.208 4.128-2.24 6.184-2.24 10.080"></path>
</svg>
