<!-- Generated by IcoMoon.io -->
<svg version="1.1" xmlns="http://www.w3.org/2000/svg" width="32" height="32" viewBox="0 0 32 32">
<title>rainy</title>
<path fill="#57a0ee" stroke="#fff" stroke-linejoin="round" stroke-linecap="butt" stroke-miterlimit="4" stroke-width="0.6" d="M23.85 17.2c0-0.005 0-0.012 0-0.018 0-2.256-1.829-4.085-4.085-4.085-0.508 0-0.994 0.093-1.443 0.262l0.028-0.009c-0.15-1.7-1.55-3.1-3.3-3.1-0.001 0-0.002 0-0.004 0-1.85 0-3.35 1.5-3.35 3.35 0 0.413 0.075 0.808 0.211 1.173l-0.008-0.023c-0.15-0.050-0.35-0.050-0.5-0.050-0.015-0-0.032-0-0.050-0-1.85 0-3.35 1.5-3.35 3.35 0 1.833 1.472 3.322 3.298 3.35l0.003 0h8.6c2.2-0.25 3.95-2 3.95-4.2z"></path>
<path fill="none" stroke="#91c0f8" stroke-linejoin="miter" stroke-linecap="round" stroke-miterlimit="4" stroke-width="1" d="M13.445 23.145l-0.7 3.94"></path>
<path fill="none" stroke="#91c0f8" stroke-linejoin="miter" stroke-linecap="round" stroke-miterlimit="4" stroke-width="1" d="M15.585 22.51l-0.695 3.935"></path>
<path fill="none" stroke="#91c0f8" stroke-linejoin="miter" stroke-linecap="round" stroke-miterlimit="4" stroke-width="1" d="M17.47 23.35l-0.695 3.935"></path>
</svg>
