<!-- Generated by IcoMoon.io -->
<svg version="1.1" xmlns="http://www.w3.org/2000/svg" width="32" height="32" viewBox="0 0 32 32">
<title>search-4</title>
<path d="M27.41 24.59l-5.070-5.080c1.052-1.56 1.68-3.482 1.68-5.551 0-5.528-4.482-10.010-10.010-10.010s-10.010 4.482-10.010 10.010c0 0.014 0 0.029 0 0.043v-0.002c0.023 5.511 4.496 9.97 10.010 9.97 2.043 0 3.943-0.612 5.527-1.663l-0.037 0.023 5.090 5.070c0.369 0.429 0.913 0.699 1.519 0.699 1.105 0 2-0.895 2-2 0-0.607-0.27-1.15-0.696-1.517l-0.003-0.002zM7 14c0.006-3.867 3.142-7 7.010-7 3.872 0 7.010 3.139 7.010 7.010 0 0.004 0 0.007 0 0.011v-0.001c-0.006 3.867-3.142 7-7.010 7-3.872 0-7.010-3.139-7.010-7.010 0-0.004 0-0.007 0-0.011v0.001z"></path>
</svg>
