<!-- Generated by IcoMoon.io -->
<svg version="1.1" xmlns="http://www.w3.org/2000/svg" width="32" height="32" viewBox="0 0 32 32">
<title>temperature-feels-like</title>
<path d="M26 30h-4c-1.105 0-2-0.895-2-2v0-7c-1.105 0-2-0.895-2-2v0-6c-0-0.015-0-0.033-0-0.050 0-1.629 1.321-2.95 2.95-2.95 0.018 0 0.035 0 0.053 0l-0.003-0h6c0.015-0 0.033-0 0.050-0 1.629 0 2.95 1.321 2.95 2.95 0 0.018-0 0.035-0 0.053l0-0.003v6c0 1.105-0.895 2-2 2v0 7c0 1.105-0.895 2-2 2v0zM21 12c-0.019-0.001-0.040-0.002-0.062-0.002-0.519 0-0.94 0.421-0.94 0.94 0 0.022 0.001 0.043 0.002 0.065l-0-0.003v6h2v9h4v-9h2v-6c0.001-0.019 0.002-0.040 0.002-0.062 0-0.519-0.421-0.94-0.94-0.94-0.022 0-0.044 0.001-0.065 0.002l0.003-0zM24 9c-2.209 0-4-1.791-4-4s1.791-4 4-4c2.209 0 4 1.791 4 4v0c-0.006 2.207-1.793 3.994-3.999 4h-0.001zM24 3c-1.105 0-2 0.895-2 2s0.895 2 2 2c1.105 0 2-0.895 2-2v0c0-1.105-0.895-2-2-2v0zM10 20.18v-8.18h-2v8.18c-1.175 0.424-2 1.53-2 2.828 0 1.657 1.343 3 3 3s3-1.343 3-3c0-1.298-0.825-2.404-1.979-2.822l-0.021-0.007z"></path>
<path d="M9 30c-3.862-0.005-6.991-3.137-6.991-7 0-1.903 0.76-3.629 1.993-4.891l-0.001 0.001v-11.11c0-2.761 2.239-5 5-5s5 2.239 5 5v0 11.11c1.231 1.261 1.991 2.987 1.991 4.89 0 3.863-3.129 6.995-6.991 7h-0.001zM9 4c-1.657 0-3 1.343-3 3v0 11.98l-0.33 0.3c-1.027 0.92-1.67 2.25-1.67 3.73 0 2.761 2.239 5 5 5s5-2.239 5-5c0-1.48-0.643-2.81-1.665-3.726l-0.005-0.004-0.33-0.3v-11.98c0-1.657-1.343-3-3-3v0z"></path>
</svg>
