<!-- Generated by IcoMoon.io -->
<svg version="1.1" xmlns="http://www.w3.org/2000/svg" width="32" height="32" viewBox="0 0 32 32">
<title>temperature</title>
<path fill="#f59558" d="M17.837 23.188c0.016-0.091 0.028-0.181 0.028-0.275v-9.834h-3.541v9.831c0 0.094 0.012 0.184 0.028 0.275-1.072 0.609-1.797 1.759-1.797 3.078 0 1.956 1.584 3.541 3.541 3.541s3.541-1.584 3.541-3.541c-0.003-1.319-0.728-2.469-1.8-3.075z"></path>
<path fill="#211f1e" d="M18.572 22.822v-16.734c0-1.366-1.113-2.478-2.478-2.478s-2.478 1.113-2.478 2.478v16.731c-1.1 0.794-1.769 2.078-1.769 3.444 0 2.344 1.906 4.247 4.247 4.247s4.25-1.9 4.25-4.244c0-1.366-0.669-2.65-1.772-3.444zM16.094 29.097c-1.563 0-2.831-1.269-2.831-2.831 0-1.003 0.544-1.941 1.416-2.45 0.219-0.125 0.353-0.359 0.353-0.613v-1.275h0.353c0.195 0 0.353-0.158 0.353-0.353s-0.158-0.353-0.353-0.353h-0.353v-1.416h0.353c0.195 0 0.353-0.158 0.353-0.353s-0.158-0.353-0.353-0.353h-0.353v-1.416h0.353c0.195 0 0.353-0.158 0.353-0.353s-0.158-0.353-0.353-0.353h-0.353v-1.416h0.353c0.195 0 0.353-0.158 0.353-0.353s-0.158-0.353-0.353-0.353h-0.353v-1.416h0.353c0.195 0 0.353-0.158 0.353-0.353s-0.158-0.353-0.353-0.353h-0.353v-1.416h0.353c0.195 0 0.353-0.158 0.353-0.353s-0.158-0.353-0.353-0.353h-0.353v-1.416h0.353c0.195 0 0.353-0.158 0.353-0.353s-0.158-0.353-0.353-0.353h-0.353v-1.428h0.353c0.195 0 0.353-0.158 0.353-0.353s-0.158-0.353-0.353-0.353v0h-0.353v-0.266c0-0.584 0.475-1.063 1.063-1.063 0.584 0 1.063 0.475 1.063 1.063v17.116c0 0.253 0.134 0.488 0.353 0.613 0.851 0.499 1.414 1.409 1.416 2.45v0c0.003 1.559-1.269 2.828-2.831 2.828z"></path>
</svg>
