<svg height="64" style="shape-rendering:geometricPrecision;text-rendering:geometricPrecision;image-rendering:optimizeQuality;fill-rule:evenodd;clip-rule:evenodd" width="64" xml:space="preserve" xmlns="http://www.w3.org/2000/svg"><path d="M41.27 18.66a12.9 12.9 0 0 1 5.47 21.92 8.9 8.9 0 0 0-9.45-4.54 13.06 13.06 0 0 0-11.79-8.42 12.91 12.91 0 0 1 15.77-8.96z" style="fill:#ffc106"/><path d="M12.29 53.71h-.1a6.96 6.96 0 0 1-.12-13.93 13.04 13.04 0 0 1 25.22-3.74 8.9 8.9 0 0 1 10.44 7.61 5.03 5.03 0 0 1 .12 10.06H12.29z" style="fill:#1ab5ed"/><path d="M55.52 39.85a1.25 1.25 0 1 1-1.24 2.16l-1.73-1c-.59-.34-.8-1.1-.46-1.7.35-.59 1.11-.8 1.7-.46l1.73 1zM20.34 22.41a1.24 1.24 0 1 1 1.24-2.16l1.73 1c.59.34.8 1.1.45 1.7-.34.6-1.1.8-1.69.46l-1.73-1zm6.71-7.63a1.24 1.24 0 1 1 2.16-1.24l1 1.73c.34.59.13 1.36-.46 1.7-.6.34-1.36.13-1.7-.46l-1-1.73zm9.63-3.25a1.25 1.25 0 0 1 2.5 0v2a1.25 1.25 0 0 1-2.5 0v-2zm9.97 2a1.25 1.25 0 0 1 2.16 1.25l-1 1.73c-.35.6-1.11.8-1.71.46a1.26 1.26 0 0 1-.45-1.71l1-1.73zm7.63 6.72a1.24 1.24 0 1 1 1.24 2.16l-1.73 1a1.25 1.25 0 0 1-1.24-2.16l1.73-1zm3.25 9.63a1.25 1.25 0 0 1 0 2.5h-2a1.25 1.25 0 0 1 0-2.5h2z" style="fill:#ffc106;fill-rule:nonzero"/></svg>