<!-- Generated by IcoMoon.io -->
<svg version="1.1" xmlns="http://www.w3.org/2000/svg" width="32" height="32" viewBox="0 0 32 32">
<title>wind</title>
<path fill="#bdd7e5" d="M12.267 10.667c0 3.535-0.955 6.4-2.133 6.4s-2.133-2.865-2.133-6.4c0-3.535 0.955-6.4 2.133-6.4s2.133 2.865 2.133 6.4z"></path>
<path fill="#abcadd" d="M10.133 17.6c-1.749 0-2.667-3.488-2.667-6.933s0.917-6.933 2.667-6.933 2.667 3.488 2.667 6.933-0.917 6.933-2.667 6.933zM10.133 4.8c-0.544 0-1.6 2.069-1.6 5.867s1.056 5.867 1.6 5.867 1.6-2.069 1.6-5.867-1.056-5.867-1.6-5.867z"></path>
<path fill="#e4eff7" d="M29.867 6.933l-19.733-2.667c1.173 0 2.133 2.864 2.133 6.4s-0.96 6.4-2.133 6.4l19.733-2.667c0.885 0 1.6-1.083 1.6-3.733s-0.715-3.733-1.6-3.733z"></path>
<path fill="#abcadd" d="M10.133 17.6l-0.069-1.067 0.149-0.016c0.629-0.224 1.52-2.4 1.52-5.851s-0.891-5.627-1.52-5.851l-0.149-0.021 0.069-1.061c0.101 0 0.197 0.011 0.299 0.037l19.472 2.629c0.8 0.021 2.096 0.613 2.096 4.267s-1.296 4.245-2.096 4.267l-19.477 2.629c-0.096 0.027-0.192 0.037-0.293 0.037zM11.749 5.024c0.715 1.365 1.051 3.605 1.051 5.643s-0.336 4.277-1.051 5.643l18.117-2.443c0.491 0 1.067-0.837 1.067-3.2s-0.576-3.2-1.067-3.2h-0.069l-18.048-2.448z"></path>
<path fill="#abcadd" d="M9.76 17.44l-7.467-7.467c-0.095-0.096-0.154-0.229-0.154-0.375 0-0.176 0.085-0.332 0.217-0.429l0.001-0.001 7.467-5.333 0.619 0.864-6.955 4.971 7.024 7.019-0.757 0.757z"></path>
<path fill="#e64c3c" d="M27.381 7.136l-1.131-0.155c0.267 1.067 0.416 2.347 0.416 3.685s-0.149 2.624-0.416 3.691l1.131-0.16c0.224-1.056 0.352-2.277 0.352-3.531s-0.123-2.475-0.352-3.531zM24.085 6.688l-1.152-0.155c0.339 1.187 0.534 2.55 0.534 3.959 0 0.061-0 0.123-0.001 0.184l0-0.009c0.001 0.052 0.001 0.113 0.001 0.174 0 1.409-0.195 2.772-0.56 4.064l0.025-0.105 1.152-0.155c0.288-1.147 0.448-2.523 0.448-3.979 0-1.451-0.16-2.827-0.448-3.979zM20.757 6.24l-1.173-0.16c0.427 1.147 0.683 2.827 0.683 4.587s-0.256 3.44-0.688 4.587l1.179-0.16c0.373-1.216 0.576-2.773 0.576-4.427s-0.208-3.211-0.576-4.427z"></path>
<path fill="none" stroke="#7f8c8d" stroke-linejoin="miter" stroke-linecap="butt" stroke-miterlimit="10" stroke-width="1.0667" d="M2.667 26.133v-21.333"></path>
<path fill="#bdc3c7" stroke="#95a5a5" stroke-linejoin="miter" stroke-linecap="butt" stroke-miterlimit="10" stroke-width="1.0667" d="M4.8 2.667c0 1.178-0.955 2.133-2.133 2.133s-2.133-0.955-2.133-2.133c0-1.178 0.955-2.133 2.133-2.133s2.133 0.955 2.133 2.133z"></path>
<path fill="#bdc3c7" stroke="#7f8c8d" stroke-linejoin="miter" stroke-linecap="butt" stroke-miterlimit="10" stroke-width="1.0667" d="M1.6 26.133h2.133v3.2h-2.133zM0.533 29.333h4.267v2.133h-4.267z"></path>
</svg>
